<svg width="150" height="125" viewBox="0 0 150 125" fill="none" xmlns="http://www.w3.org/2000/svg">
<path d="M95.4381 60.9434L88.1754 75.2042C85.2304 80.9878 77.6225 83.501 71.7616 80.4009L57.6144 72.9187L31.5271 124.134C33.1704 124.351 34.8749 124.251 36.5525 123.72L141.9 90.3659C143.578 89.8348 145.029 88.9361 146.247 87.813L95.4381 60.9434Z" fill="#F2F1F3"/>
<path d="M113.345 0.549518L8.21095 33.8358C6.53678 34.3658 5.08684 35.2587 3.86823 36.3714L57.8981 64.5401C57.9017 64.542 57.9051 64.5414 57.9088 64.5433C57.911 64.5446 57.9129 64.5465 57.914 64.5488L75.4821 73.7078C77.3466 74.676 80.3118 73.7372 81.2794 71.8723L90.3729 54.2745C90.3729 54.2745 90.3743 54.2675 90.3762 54.2638C90.3762 54.2638 90.3811 54.2587 90.383 54.2551L118.355 0.123644C116.718 -0.0852119 115.019 0.0194619 113.345 0.549518ZM0.181615 43.2908C-0.0840587 45.0195 -0.0121516 46.8223 0.550575 48.5997L21.854 115.886C22.4168 117.663 23.395 119.179 24.6074 120.44L50.8317 69.6972L0.181615 43.2908ZM125.352 3.6601L99.1297 54.4057L149.779 80.8102C150.045 79.0815 149.973 77.2787 149.41 75.5008L128.106 8.21444C127.543 6.43658 126.565 4.92091 125.352 3.6601Z" fill="#F2F1F3"/>
</svg>
